<?xml version="1.0" encoding="utf-8"?>
<!-- Generator: Adobe Illustrator 18.0.0, SVG Export Plug-In . SVG Version: 6.00 Build 0)  -->
<!DOCTYPE svg PUBLIC "-//W3C//DTD SVG 1.1//EN" "http://www.w3.org/Graphics/SVG/1.1/DTD/svg11.dtd">
<svg version="1.1" id="Capa_1" xmlns="http://www.w3.org/2000/svg" xmlns:xlink="http://www.w3.org/1999/xlink" x="0px" y="0px"
	 viewBox="0 0 612 792" enable-background="new 0 0 612 792" xml:space="preserve">
<g id="interface_-_arrow_bottom">
	<g>
		<path fill="#FFFFFF" d="M455.9,697.5c8.3-8.3,8.3-21.8,0-30.1L203.3,436.1L455.9,205c8.3-8.3,8.3-21.8,0-30.1
			c-8.3-8.3-21.8-8.3-30.2,0l-263,240.8c-2.5,1-4.9,2.5-6.9,4.5c-4.4,4.4-6.3,10.1-6,15.8c-0.3,5.8,1.7,11.6,6,16
			c2.1,2.1,4.5,3.7,7.1,4.6l263,240.7C434.1,705.8,447.5,705.8,455.9,697.5z"/>
	</g>
</g>
</svg>
