<?xml version="1.0" encoding="utf-8"?>
<!-- Generator: Adobe Illustrator 18.0.0, SVG Export Plug-In . SVG Version: 6.00 Build 0)  -->
<!DOCTYPE svg PUBLIC "-//W3C//DTD SVG 1.1//EN" "http://www.w3.org/Graphics/SVG/1.1/DTD/svg11.dtd">
<svg version="1.1" id="Capa_1" xmlns="http://www.w3.org/2000/svg" xmlns:xlink="http://www.w3.org/1999/xlink" x="0px" y="0px"
	 viewBox="0 0 612 792" enable-background="new 0 0 612 792" xml:space="preserve">
<g id="interface_-_arrow_bottom">
	<g>
		<path fill="#FFFFFF" d="M44.6,586.2c8.3,8.3,21.8,8.3,30.1,0L306,333.5l231.2,252.6c8.3,8.3,21.8,8.3,30.1,0
			c8.3-8.3,8.3-21.8,0-30.2l-240.8-263c-1-2.5-2.5-4.9-4.5-6.9c-4.4-4.4-10.1-6.3-15.8-6c-5.8-0.3-11.6,1.7-16,6
			c-2.1,2.1-3.7,4.5-4.6,7.1l-240.7,263C36.4,564.3,36.4,577.8,44.6,586.2z"/>
	</g>
</g>
</svg>
